<svg version="1.2" xmlns="http://www.w3.org/2000/svg" viewBox="0 0 30 22" width="30" height="22"><defs><clipPath clipPathUnits="userSpaceOnUse" id="cp1"><path d="m0 0h30v22h-30z"/></clipPath></defs><style>.a{fill:#278783}</style><g clip-path="url(#cp1)"><path class="a" d="m25.7 21.7h-21.4c-1.1 0-2.2-0.5-3-1.3-0.8-0.8-1.3-1.9-1.3-3v-12.8c0-1.1 0.5-2.2 1.3-3 0.8-0.8 1.9-1.3 3-1.3h21.4c1.1 0 2.2 0.5 3 1.3 0.8 0.8 1.3 1.9 1.3 3v12.8c0 1.1-0.5 2.2-1.3 3-0.8 0.8-1.9 1.3-3 1.3zm-21.4-19.9c-0.7 0-1.4 0.3-2 0.8-0.5 0.6-0.8 1.3-0.8 2v12.8c0 0.7 0.3 1.4 0.8 2 0.6 0.5 1.3 0.8 2 0.8h21.4c0.7 0 1.4-0.3 2-0.8 0.5-0.6 0.8-1.3 0.8-2v-12.8c0-0.7-0.3-1.4-0.8-2-0.6-0.5-1.3-0.8-2-0.8z"/><path class="a" d="m15 14c-0.9 0-1.8-0.3-2.6-0.8l-11.6-8.8q-0.2-0.1-0.2-0.3-0.1-0.1-0.2-0.2 0-0.2 0.1-0.3 0-0.2 0.1-0.3 0.1-0.1 0.2-0.2 0.2-0.1 0.3-0.1 0.2 0 0.3 0 0.1 0.1 0.3 0.2l11.6 8.8c0.5 0.4 1.1 0.6 1.7 0.6 0.6 0 1.2-0.2 1.7-0.6l11.6-8.8q0.2-0.1 0.3-0.2 0.1 0 0.3 0 0.1 0 0.3 0.1 0.1 0.1 0.2 0.2 0.1 0.1 0.1 0.3 0.1 0.1 0.1 0.3-0.1 0.1-0.2 0.2 0 0.2-0.2 0.3l-11.6 8.8c-0.8 0.5-1.7 0.8-2.6 0.8z"/><path class="a" d="m1.1 19.6q-0.2 0-0.4-0.2-0.2-0.1-0.3-0.3-0.1-0.2 0-0.5 0-0.2 0.2-0.3l9.2-8.2q0.2-0.2 0.5-0.2 0.3 0 0.5 0.2 0.2 0.2 0.2 0.6 0 0.3-0.2 0.5l-9.2 8.2q-0.2 0.2-0.5 0.2zm27.8 0q-0.3 0-0.5-0.2l-9.2-8.2q-0.2-0.2-0.2-0.5 0-0.4 0.2-0.6 0.2-0.2 0.5-0.2 0.3 0 0.5 0.2l9.2 8.2q0.2 0.1 0.2 0.3 0.1 0.3 0 0.5-0.1 0.2-0.3 0.3-0.2 0.2-0.4 0.2z"/></g></svg>