<svg version="1.2" xmlns="http://www.w3.org/2000/svg" viewBox="0 0 22 22" width="22" height="22"><style>.a{fill:#278783;stroke:#eee;stroke-linecap:round;stroke-linejoin:round;stroke-width:2}</style><path class="a" d="m20.9 15.9v3q0 0.4-0.2 0.8-0.1 0.4-0.5 0.7-0.3 0.3-0.7 0.4-0.4 0.2-0.8 0.1c-3.1-0.3-6-1.4-8.6-3-2.4-1.6-4.5-3.6-6-6-1.7-2.7-2.8-5.6-3.1-8.7q0-0.4 0.1-0.8 0.1-0.4 0.4-0.7 0.3-0.4 0.7-0.5 0.4-0.2 0.8-0.2h3c0.5 0 1 0.2 1.3 0.5 0.4 0.3 0.6 0.7 0.7 1.2q0.2 1.5 0.7 2.8 0.2 0.6 0.1 1.2-0.1 0.5-0.6 0.9l-1.2 1.3c1.4 2.5 3.5 4.6 6 6l1.2-1.3q0.5-0.4 1-0.5 0.6-0.1 1.2 0.1 1.3 0.5 2.8 0.7c0.5 0.1 0.9 0.3 1.2 0.7 0.3 0.4 0.5 0.8 0.5 1.3z"/></svg>