<svg version="1.2" xmlns="http://www.w3.org/2000/svg" viewBox="0 0 24 24" width="24" height="24"><style>.a{opacity:.75;stroke:#eee;stroke-linecap:round;stroke-linejoin:round;stroke-width:2}</style><path class="a" d="m22.5 6.4q-0.1-0.7-0.7-1.2-0.5-0.6-1.2-0.8c-1.7-0.4-8.6-0.4-8.6-0.4 0 0-6.9 0-8.6 0.5q-0.7 0.2-1.2 0.7-0.6 0.5-0.7 1.3-0.5 2.6-0.5 5.3 0 2.6 0.5 5.3 0.2 0.7 0.7 1.2 0.5 0.5 1.2 0.7c1.7 0.5 8.6 0.5 8.6 0.5 0 0 6.9 0 8.6-0.5q0.7-0.2 1.2-0.7 0.6-0.6 0.7-1.3 0.5-2.6 0.5-5.3 0-2.6-0.5-5.3z"/><path class="a" d="m9.8 15l5.7-3.3-5.8-3.2z"/></svg>